<?xml version="1.0" standalone="no"?>
<!DOCTYPE svg PUBLIC "-//W3C//DTD SVG 20010904//EN"
 "http://www.w3.org/TR/2001/REC-SVG-20010904/DTD/svg10.dtd">
<svg version="1.0" xmlns="http://www.w3.org/2000/svg"
 width="109.000000pt" height="109.000000pt" viewBox="0 0 109.000000 109.000000"
 preserveAspectRatio="xMidYMid meet">
<g transform="translate(0.000000,109.000000) scale(0.100000,-0.100000)"
fill="#000000" stroke="none">
<path d="M255 1020 c3 -5 17 -10 29 -10 41 0 199 -49 272 -85 43 -21 87 -52
113 -80 37 -40 41 -50 41 -94 0 -89 -51 -130 -283 -230 -74 -32 -156 -70 -181
-85 -48 -28 -86 -76 -86 -109 0 -26 28 -77 61 -112 l28 -30 -63 -33 c-35 -18
-74 -44 -86 -57 l-23 -25 82 0 c77 0 85 2 103 25 38 48 52 49 134 11 70 -34
81 -36 172 -36 l97 1 -67 24 c-87 31 -191 86 -181 96 4 4 45 21 90 38 161 59
234 107 253 167 15 44 1 83 -42 119 -28 24 -31 24 -66 10 -46 -20 -46 -19 -32
-46 16 -30 7 -105 -16 -131 -45 -51 -213 -128 -248 -115 -8 3 -22 26 -31 51
-16 43 -16 46 1 83 25 51 82 87 245 156 233 99 297 152 287 241 -3 23 -14 55
-24 71 -45 69 -224 147 -408 180 -102 17 -180 20 -171 5z"/>
<path d="M911 934 c-12 -15 -21 -34 -21 -44 0 -10 9 -29 21 -44 40 -50 119
-21 119 44 0 65 -79 94 -119 44z"/>
<path d="M303 788 c-43 -47 -31 -105 31 -147 66 -46 136 -71 164 -58 29 13 28
19 -5 39 -84 50 -114 129 -62 169 l24 19 -66 0 c-55 0 -69 -4 -86 -22z"/>
</g>
</svg>
