<svg id="Layer_1" xmlns="http://www.w3.org/2000/svg" viewBox="0 0 30 23.6">
  <style>
    .st0 {
      fill: #007CC2
    }

    .st1 {
      fill: #03559E
    }
  </style>
  <path class=""
    d="M8.6 1.6v3.2c0 .4-.2.8-.5 1.1s-.7.5-1.1.5H1.6C1.2 6.4.8 6.3.5 6S0 5.3 0 4.8V1.6C0 1.2.2.8.5.5S1.2 0 1.6 0H7c.4 0 .8.2 1.1.5s.5.7.5 1.1z" />
  <path class="st1"
    d="M8.6 10.2v3.2c0 .4-.2.8-.5 1.1s-.7.5-1.1.5H1.6c-.4 0-.8-.2-1.1-.5s-.5-.7-.5-1.1v-3.2c0-.5.2-.8.5-1.2s.7-.5 1.1-.5H7c.4 0 .8.2 1.1.5s.5.7.5 1.2z" />
  <path class="st0"
    d="M8.6 18.8V22c0 .4-.2.8-.5 1.1s-.7.5-1.1.5H1.6c-.4 0-.8-.2-1.1-.5S0 22.4 0 22v-3.2c0-.4.2-.8.5-1.1s.7-.5 1.1-.5H7c.4 0 .8.2 1.1.5s.5.6.5 1.1z" />
  <path class="st1"
    d="M19.3 1.6v3.2c0 .4-.2.8-.5 1.1-.3.3-.7.5-1.1.5h-5.4c-.4 0-.8-.2-1.1-.5s-.5-.7-.5-1.1V1.6c0-.4.2-.8.5-1.1s.7-.5 1.1-.5h5.4c.4 0 .8.2 1.1.5.3.3.5.7.5 1.1z" />
  <path class="st0"
    d="M19.3 10.2v3.2c0 .4-.2.8-.5 1.1-.3.3-.7.5-1.1.5h-5.4c-.4 0-.8-.2-1.1-.5s-.5-.7-.5-1.1v-3.2c0-.4.2-.8.5-1.1s.7-.5 1.1-.5h5.4c.4 0 .8.2 1.1.5.3.3.5.6.5 1.1z" />
  <path class="st1"
    d="M19.3 18.8V22c0 .4-.2.8-.5 1.1-.3.3-.7.5-1.1.5h-5.4c-.4 0-.8-.2-1.1-.5s-.5-.7-.5-1.1v-3.2c0-.4.2-.8.5-1.1s.7-.5 1.1-.5h5.4c.4 0 .8.2 1.1.5.3.2.5.6.5 1.1z" />
  <path class="st0"
    d="M30 1.6v3.2c0 .4-.2.8-.5 1.1s-.7.5-1.1.5H23c-.4 0-.8-.2-1.1-.5s-.5-.7-.5-1.1V1.6c0-.4.2-.8.5-1.1S22.6 0 23 0h5.4c.4 0 .8.2 1.1.5s.5.7.5 1.1z" />
  <path class="st1"
    d="M30 10.2v3.2c0 .4-.2.8-.5 1.1s-.7.5-1.1.5H23c-.4 0-.8-.2-1.1-.5s-.5-.7-.5-1.1v-3.2c0-.4.2-.8.5-1.1s.7-.5 1.1-.5h5.4c.4 0 .8.2 1.1.5s.5.6.5 1.1z" />
  <path class="st0"
    d="M30 18.8V22c0 .4-.2.8-.5 1.1s-.7.5-1.1.5H23c-.4 0-.8-.2-1.1-.5s-.5-.7-.5-1.1v-3.2c0-.4.2-.8.5-1.1s.7-.5 1.1-.5h5.4c.4 0 .8.2 1.1.5s.5.6.5 1.1z" />
</svg>