<svg baseProfile="tiny" xmlns="http://www.w3.org/2000/svg" width="30" height="25.714" viewBox="0 0 30 25.714">
  <path fill="none"
    d="M10.714 2.143h8.572v2.144h-8.572zM20.893 12.856h-3.75v-3.75c0-.156-.05-.284-.15-.385-.1-.098-.23-.15-.385-.15h-3.215c-.156 0-.284.052-.385.15-.1.102-.15.23-.15.386v3.75h-3.75c-.157 0-.285.05-.386.15-.1.102-.15.23-.15.386v3.214c0 .157.05.285.15.386.1.1.23.15.386.15h3.75v3.75c0 .157.05.284.15.386.1.1.23.15.385.15h3.215c.156 0 .284-.05.385-.15.1-.102.15-.23.15-.386v-3.75h3.75c.156 0 .285-.05.386-.15.1-.1.15-.23.15-.386v-3.214c0-.156-.052-.284-.15-.385-.102-.1-.23-.15-.387-.15z" />
  <path fill="#054F92"
    d="M3.75 4.287c-1.028 0-1.91.367-2.646 1.104C.37 6.127 0 7.01 0 8.038v13.927c0 1.027.368 1.91 1.104 2.646.737.736 1.618 1.104 2.646 1.104h.536V4.287H3.75z" />
  <path fill="#0377BE"
    d="M21.43 4.287v-2.68c0-.445-.157-.825-.47-1.138-.313-.314-.692-.47-1.14-.47H10.18c-.445 0-.825.156-1.138.468-.312.313-.468.694-.468 1.138v2.68h-2.68v21.427H24.11V4.287h-2.68zM10.713 2.143h8.572v2.144h-8.572V2.143zM21.43 16.606c0 .157-.052.285-.15.386-.102.1-.23.15-.387.15h-3.75v3.75c0 .157-.05.284-.15.386-.1.1-.23.15-.385.15h-3.215c-.156 0-.284-.05-.385-.15-.1-.102-.15-.23-.15-.386v-3.75h-3.75c-.157 0-.285-.05-.386-.15-.1-.1-.15-.23-.15-.386v-3.214c0-.156.05-.284.15-.385.1-.1.23-.15.386-.15h3.75v-3.75c0-.157.05-.285.15-.386.1-.098.23-.15.385-.15h3.215c.156 0 .284.052.385.15.1.102.15.23.15.386v3.75h3.75c.156 0 .285.05.386.15.1.102.15.23.15.386v3.214z" />
  <path fill="#054F92"
    d="M30 21.964V8.037c0-1.028-.368-1.91-1.105-2.646s-1.62-1.103-2.646-1.103h-.536v21.427h.535c1.026 0 1.908-.368 2.645-1.104.737-.737 1.104-1.62 1.104-2.646z" />
</svg>