<svg baseProfile="tiny" xmlns="http://www.w3.org/2000/svg" width="30" height="25.714" viewBox="0 0 30 25.714"><path fill="#054F92" d="M0 18.75c0-.303.078-.572.22-.813-.142.24-.22.51-.22.813v5.357c0 .313.08.59.235.838-.153-.247-.235-.525-.235-.84V18.75zM11.465 8.327c-.01-.007-.024-.012-.035-.02.01.008.024.012.035.02zM18.422 8.388c.14-.074.274-.164.396-.285.118-.12.208-.25.28-.39-.073.14-.162.27-.28.39-.122.12-.255.21-.396.285zM19.286 1.607c0-.034-.007-.065-.01-.1.003.035.01.066.01.1zM8.285 17.83c-.054-.075-.113-.15-.182-.22-.256-.255-.56-.4-.904-.446.344.046.647.19.903.447.07.07.128.145.182.22zM7.2 25.692c.345-.046.647-.19.903-.447.077-.076.143-.157.2-.242-.057.085-.124.166-.2.242-.256.256-.56.4-.904.447zM10.978 7.855c.06.087.127.17.205.248.066.066.137.122.21.174-.073-.052-.145-.108-.21-.175-.08-.078-.146-.16-.205-.247zM1.607 17.143c-.07 0-.133.01-.198.018.065-.007.13-.017.197-.017zM26.786 13.93c0-.58-.212-1.084-.637-1.508-.426-.424-.928-.637-1.508-.637h-8.57V8.57h-2.143v3.215H5.356c-.58 0-1.083.213-1.506.637-.424.424-.636.927-.636 1.507v3.213h2.143V13.93h8.572v3.213h2.14V13.93h8.572v3.213h2.144V13.93zM17.68 0c.445 0 .825.156 1.137.468.078.078.146.16.206.247-.06-.086-.127-.168-.205-.247C18.504.156 18.125 0 17.678 0h-5.357c-.278 0-.528.068-.754.19.226-.122.476-.19.756-.19h5.357zM10.715 1.607c0-.288.072-.546.202-.78-.13.235-.203.492-.202.78v5.356c0 .33.086.622.256.88-.168-.257-.255-.55-.255-.88V1.608zM10.715 18.75c0-.28.068-.528.19-.756-.122.228-.19.477-.19.756v5.357c0 .29.072.548.204.78-.132-.232-.205-.49-.205-.78V18.75zM12.32 25.714c-.142 0-.276-.022-.406-.055.13.03.264.054.407.054zM30 24.107c0 .446-.156.825-.47 1.138.314-.312.47-.69.47-1.138zM12.32 17.143c-.142 0-.276.022-.406.055.13-.033.264-.055.407-.055zM19.286 24.107c0 .057-.01.11-.016.166.006-.055.016-.108.016-.166zM21.43 24.107c0 .446.155.825.468 1.138-.313-.312-.47-.69-.47-1.138zM19.257 24.43l-.002.006c0-.002 0-.004.002-.006zM1.607 25.714c-.068 0-.132-.01-.198-.018.064.007.128.018.197.018zM19.022 17.858c-.06-.087-.127-.17-.205-.247s-.16-.145-.247-.204c.086.06.168.127.246.205s.147.16.206.248zM18.57 25.45c.086-.06.17-.127.247-.205.09-.09.163-.188.228-.29-.064.103-.138.2-.23.29-.077.078-.16.147-.245.205z"/><path fill="#0377BE" d="M17.68 8.57c.272 0 .52-.065.742-.183.14-.074.274-.165.395-.286.12-.118.208-.25.282-.387.12-.225.187-.473.187-.75V1.607c0-.035-.007-.066-.01-.1-.016-.293-.097-.56-.254-.792-.06-.086-.128-.17-.206-.247C18.505.156 18.125 0 17.68 0H12.32c-.28 0-.53.068-.756.19-.136.073-.266.16-.383.278-.11.11-.194.233-.266.36-.13.233-.202.49-.202.78v5.356c0 .33.086.622.256.878.004.004.005.01.008.013.06.086.126.168.205.247.066.066.138.123.21.175.013.01.024.022.037.03.01.008.024.013.035.02.25.16.536.245.857.245h5.357zM28.394 17.143h-5.357c-.447 0-.827.156-1.14.47-.312.312-.468.69-.468 1.138v5.357c0 .447.155.826.468 1.14.312.312.69.468 1.14.468H28.392c.446 0 .826-.156 1.14-.47s.467-.69.467-1.14V18.75c0-.446-.156-.826-.47-1.14s-.69-.467-1.136-.467zM1.607 17.143c-.07 0-.133.01-.2.018-.36.042-.675.188-.94.452-.1.1-.177.21-.246.325-.142.24-.22.51-.22.813v5.356c0 .313.082.592.235.84.065.104.14.205.233.3.264.264.58.41.94.45.066.007.13.018.2.018H6.962c.08 0 .158-.01.234-.02.345-.047.648-.192.904-.448.078-.076.144-.157.202-.242.178-.26.268-.56.268-.896V18.75c0-.347-.097-.653-.286-.92-.054-.075-.113-.15-.183-.22-.254-.255-.558-.4-.903-.446-.077-.01-.153-.02-.234-.02H1.607zM12.322 17.143c-.144 0-.278.022-.408.055-.274.067-.52.202-.73.414-.118.117-.206.247-.28.383-.12.228-.19.477-.19.756v5.357c0 .29.074.55.205.78.07.128.154.25.263.358.212.212.457.347.73.414.13.03.265.054.41.054h5.355c.334 0 .63-.088.89-.264.087-.06.17-.127.247-.205.09-.09.164-.188.23-.29.1-.16.173-.33.21-.52v-.006c.01-.05.01-.105.015-.157.006-.056.016-.11.016-.167V18.75c0-.335-.088-.632-.264-.892-.06-.087-.128-.17-.206-.247s-.16-.145-.246-.204c-.26-.176-.557-.264-.892-.264H12.323z"/></svg>