<svg baseProfile="tiny" xmlns="http://www.w3.org/2000/svg" width="26.436" height="40.257" viewBox="0 0 26.436 40.257"><path fill="#0377BE" d="M15.173 36.343c-6.435-1.818-9.01-4.374-9.01-10.226 0-3.62 1.553-6.436 4.092-7.942L8.34 14.172c-4.333 2.173-7.213 6.566-7.213 12.048 0 4.396 1.826 7.893 4.638 10.22l9.407-.092v-.005zM16.574 28.476c.14.29.323.514.55.667.23.152.43.188.602.105l2.543-1.217c.17-.08.27-.26.293-.53.023-.275-.034-.558-.173-.85l-.512-1.07-3.815 1.825.51 1.07zM8.033.815c-.14-.292-.323-.513-.55-.667-.23-.153-.43-.188-.6-.106L4.338 1.26c-.173.082-.27.26-.295.533-.024.272.034.555.173.847l.444.93 3.815-1.825-.444-.93z"/><path fill="#0377BE" d="M25.317 37.504c-.003-.34-.097-.633-.28-.88-.182-.245-.396-.367-.643-.365l-9.222.088-9.407.092-4.868.047c-.246.003-.46.13-.636.38-.176.248-.263.542-.26.882l.024 2.507 25.317-.246-.023-2.506zM15.828 32.67c0 .17.046.343.14.524l.696 1.33 9.77-5.107v-.002l-.694-1.33c-.094-.18-.21-.317-.35-.412-.138-.096-.255-.12-.35-.07l-9.07 4.74c-.093.05-.14.16-.142.328z"/><path fill="#054F92" d="M14.49 27.03c.118.25.323.415.613.5.29.084.574.06.853-.074l.106-.05 3.815-1.825.185-.088c.278-.133.476-.34.593-.617.115-.28.114-.543-.005-.79L10.128 2.08c-.12-.248-.323-.414-.613-.498s-.574-.06-.852.073l-.186.09-3.815 1.823-.106.05c-.278.134-.476.34-.592.62-.117.277-.115.54.003.79L8.34 14.17l1.916 4.003 4.235 8.856z"/></svg>